# xmcd
#
# Track frame offsets:
#	150
#	16454
#	32646
#	47600
#	63374
#	78741
#	94275
#	109601
#	125847
#	141695
#	157619
#
# Disc length: 2360 seconds
#
# Revision: 0
# Processed by: cddbd v1.5.1PL2 Copyright (c) Steve Scherf et al.
# Submitted via: EasyCDDAExtractor 9.0.0.1
#
DISCID=9309360b
DTITLE=Cennad - Negas i'r Byd
DYEAR=2006
DGENRE=
TTITLE0=Gadael chdi fynd
TTITLE1=Bywyd i fyw
TTITLE2=Manana
TTITLE3=Dyna bywyd
TTITLE4=Paid a gofyn am y byd
TTITLE5=Dal fi fyny
TTITLE6=Iwerddon
TTITLE7=Rhydd i neud
TTITLE8=Byd yn dal i droi
TTITLE9=Bai ar gam
TTITLE10=Ar doriad y wawr
EXTD=
EXTT0=
EXTT1=
EXTT2=
EXTT3=
EXTT4=
EXTT5=
EXTT6=
EXTT7=
EXTT8=
EXTT9=
EXTT10=
PLAYORDER=
